PathFileType	4	(X/Y/Z)	SUBJ82_4_walk_RCNL2025.trc
DataRate	CameraRate	NumFrames	NumMarkers	Units	OrigDataRate	OrigDataStartFrame	OrigNumFrames
100	100	8	25	mm	100	91	242
Frame#	Time	R_Shoulder			L_Shoulder			C7			J_Notch			R_Elbow			L_Elbow			R_Wrist			L_Wrist			R_Asis			L_Asis			Sacral			Thoracic			Sternum			R_Thigh_Lateral			R_Knee_Lateral			R_Shank_Lateral			R_Ankle_Lateral			R_Heel			R_Toe			L_Thigh_Lateral			L_Knee_Lateral			L_Shank_Lateral			L_Ankle_Lateral			L_Heel			L_Toe		
		X1	Y1	Z1	X2	Y2	Z2	X3	Y3	Z3	X4	Y4	Z4	X5	Y5	Z5	X6	Y6	Z6	X7	Y7	Z7	X8	Y8	Z8	X9	Y9	Z9	X10	Y10	Z10	X11	Y11	Z11	X12	Y12	Z12	X13	Y13	Z13	X14	Y14	Z14	X15	Y15	Z15	X16	Y16	Z16	X17	Y17	Z17	X18	Y18	Z18	X19	Y19	Z19	X20	Y20	Z20	X21	Y21	Z21	X22	Y22	Z22	X23	Y23	Z23	X24	Y24	Z24	X25	Y25	Z25
91	0.90000000	68.170929	1404.856567	-50.792244	111.840164	1441.411743	-454.596954	45.040401	1521.056519	-245.812042	155.861420	1394.632324	-247.164276	-13.228570	1068.687744	2.741715	36.983021	1102.656616	-550.660400	64.522253	819.532715	-16.651118	144.808384	862.968140	-532.265076	127.371330	995.962646	-120.789879	143.208878	990.093933	-388.905396	-42.889805	1006.412842	-271.474182	-62.623116	1284.999878	-281.683838	175.776428	1221.057007	-258.226990	126.258148	566.349731	-78.212891	140.117020	482.164825	-127.556236	122.042976	255.563446	-76.351562	130.108139	74.799911	-176.765030	90.897339	43.776836	-223.215927	268.928894	50.495968	-194.910034	75.122734	547.256042	-451.708862	76.447632	483.882782	-415.266418	-88.957962	347.233093	-448.875885	-241.365814	236.469299	-383.920227	-277.374847	254.246170	-326.896912	-187.275330	103.960403	-364.858215
92	0.91000000	82.790131	1408.743286	-50.586517	125.435158	1443.818604	-454.864136	59.646244	1524.067627	-245.927200	170.464203	1397.892822	-247.219681	5.137692	1072.317017	5.367905	47.785549	1105.358276	-549.482544	86.482847	824.381683	-14.178248	148.460712	862.434540	-530.934052	141.182587	998.089539	-119.460266	157.817795	993.527222	-387.543213	-28.474401	1009.944275	-270.954468	-47.861649	1287.782104	-280.572662	190.318558	1224.227051	-257.791809	131.056641	567.237854	-78.267586	143.230850	482.676270	-127.764076	122.480270	256.147186	-76.498634	129.976929	74.905685	-176.745071	90.727577	43.922073	-223.085693	268.887543	50.494434	-194.812744	99.416710	550.660461	-449.438538	103.588860	487.970612	-413.420624	-58.104637	347.559601	-447.634644	-207.568756	232.444717	-382.560547	-244.524551	248.651535	-325.565125	-148.132507	102.637901	-364.233826
93	0.92000000	97.366653	1412.511475	-50.361694	139.012054	1445.945068	-455.098938	74.155357	1526.814575	-246.077103	185.022034	1400.911987	-247.255173	23.117317	1075.818237	7.889255	58.400352	1107.881104	-548.307678	108.345272	829.262665	-11.800781	152.121941	862.077179	-529.624298	154.967926	1000.001831	-118.152130	172.418793	996.787354	-386.170074	-14.085493	1013.240967	-270.600372	-33.143585	1290.295044	-279.409943	204.791534	1227.174805	-257.232697	135.684967	568.093567	-78.417213	146.128143	483.175873	-128.080536	122.759346	256.717773	-76.763138	129.880600	75.014153	-176.755569	90.542763	44.072712	-222.934372	268.881378	50.475880	-194.721451	123.700867	554.144409	-447.408844	130.359634	491.941162	-411.588104	-27.096565	346.991150	-446.248352	-172.937653	226.990234	-380.984650	-210.810165	241.443268	-324.026245	-107.616333	100.391953	-363.410736
94	0.93000000	111.971016	1416.079102	-50.119476	152.616562	1447.753540	-455.275665	88.577202	1529.251465	-246.241821	199.542435	1403.634033	-247.261337	40.738121	1079.134644	10.327959	68.830475	1110.188477	-547.118713	130.103535	834.115967	-9.521525	155.811127	861.844086	-528.312332	168.736343	1001.665894	-116.867119	187.019470	999.790100	-384.785034	0.259252	1016.235901	-270.436188	-18.463406	1292.500488	-278.213776	219.208786	1229.840820	-256.563232	140.217911	568.896606	-78.646591	148.901398	483.647827	-128.499115	123.028259	257.270142	-77.123871	129.841248	75.134262	-176.813965	90.356529	44.233959	-222.789688	268.903076	50.437714	-194.643173	148.004227	557.622742	-445.683136	156.739075	495.680145	-409.793243	4.061971	345.509308	-444.719452	-137.493286	220.241425	-379.207947	-176.205078	232.768799	-322.274017	-65.911781	97.367958	-362.451355
95	0.94000000	126.657341	1419.368774	-49.866459	166.274658	1449.210938	-455.385315	102.922279	1531.341064	-246.406448	214.028580	1406.017700	-247.236862	58.045235	1082.208984	12.709955	79.084679	1112.242554	-545.899475	151.751324	838.877533	-7.342002	159.542831	861.676697	-526.973801	182.490997	1003.039246	-115.608116	201.624619	1002.464233	-383.395508	14.531191	1018.885010	-270.487396	-3.813310	1294.367188	-277.008118	233.587433	1232.177246	-255.806473	144.739639	569.620789	-78.950150	151.665924	484.075073	-129.018860	123.440781	257.806396	-77.559769	129.886032	75.277847	-176.941299	90.196808	44.411583	-222.695312	268.948425	50.377132	-194.590561	172.307770	561.027649	-444.287537	182.695175	499.107086	-408.047974	35.396038	343.110992	-443.061890	-101.228966	212.337845	-377.258881	-140.669479	222.785126	-320.321014	-23.163773	93.713783	-361.397247
96	0.95000000	141.458374	1422.311768	-49.611855	179.992996	1450.289917	-455.433441	117.203163	1533.053589	-246.561432	228.484100	1408.031616	-247.186874	75.093102	1084.986816	15.059065	89.177696	1114.009766	-544.638855	173.280983	843.479095	-5.261562	163.330856	861.515808	-525.589264	196.229416	1004.075195	-114.379272	216.237061	1004.755066	-382.014465	28.693846	1021.164490	-270.776978	10.815384	1295.870850	-275.819672	247.945694	1234.145264	-254.990341	149.338318	570.236572	-79.329971	154.539551	484.439636	-129.641571	124.122360	258.324951	-78.056625	130.039932	75.453354	-177.159943	90.105263	44.607224	-222.705109	269.014862	50.293125	-194.577469	196.555725	564.303467	-443.213257	208.185364	502.170044	-406.356415	66.942062	339.822632	-441.299072	-64.118088	203.422897	-375.175018	-104.154793	211.656326	-318.195740	20.519798	89.578880	-360.271301
97	0.96000000	156.383453	1424.850952	-49.364788	193.761948	1450.970215	-455.436829	131.434357	1534.366821	-246.702347	242.915955	1409.651978	-247.120972	91.940430	1087.421021	17.393896	99.129356	1115.463257	-543.333679	194.685379	847.852142	-3.275590	167.195015	861.303375	-524.148468	209.944931	1004.729980	-113.188629	230.858353	1006.623047	-380.659302	42.712608	1023.063477	-271.315399	25.429144	1296.995972	-274.673645	262.301453	1235.712524	-254.145355	154.104095	570.714966	-79.793350	157.627029	484.722412	-130.367188	125.161461	258.813934	-78.608910	130.318695	75.661552	-177.489716	90.125687	44.816849	-222.870148	269.099701	50.186153	-194.615982	220.666382	567.400330	-442.423065	233.159714	504.840240	-404.719818	98.730690	335.707031	-439.461212	-26.123924	193.644348	-372.995605	-66.607513	199.552490	-315.938477	65.061104	85.115669	-359.083221
98	0.97000000	171.422104	1426.941895	-49.132221	207.563095	1451.237305	-455.417999	145.631546	1535.265991	-246.830048	257.333435	1410.859619	-247.051193	108.645981	1089.474365	19.727238	108.962509	1116.583374	-541.987061	215.960136	851.935089	-1.375888	171.166931	860.983246	-522.652908	223.626953	1004.969299	-112.050858	245.489716	1008.041382	-379.353821	56.570351	1024.572754	-272.086670	40.030273	1297.733521	-273.590546	276.671082	1236.850830	-253.301239	159.127670	571.030884	-80.349739	161.014481	484.904602	-131.188416	126.615906	259.252014	-79.216339	130.724854	75.895103	-177.943817	90.283684	45.033756	-223.220230	269.201843	50.057987	-194.716888	244.540787	570.268372	-441.861359	257.562408	507.104126	-403.139801	130.772934	330.861542	-437.582764	12.791554	183.157089	-370.756348	-27.973251	186.651611	-313.596863	110.401993	80.481247	-357.837769
